<svg xmlns="http://www.w3.org/2000/svg" viewBox="0 0 45.16 45.15"><defs><linearGradient id="aec1c90b5-7b65-4bb9-849a-99f87bc705d4" y1="22.57" x2="45.16" y2="22.57" gradientUnits="userSpaceOnUse"><stop offset="0" stop-color="#22bbfe"/><stop offset=".48" stop-color="#812eff"/><stop offset=".99" stop-color="#f95595"/></linearGradient></defs><path d="M14.25 1.59A22.73 22.73 0 0 1 34 3.08a33.78 33.78 0 0 1-3.19 3.36c-4.71 4.65-9.31 9.41-14.07 14-1.48-1.33-2.78-3.15-4.9-3.39A5.61 5.61 0 1 0 11 28.18a5.82 5.82 0 0 0 3.89-1.69c3.93-3.88 7.81-7.81 11.73-11.71a10.85 10.85 0 0 1 17.21 2.63c1.77 3.12 1.44 6.88.74 10.25a22.68 22.68 0 0 1-13.87 16 22.16 22.16 0 0 1-19.58-1.7q8.58-8.62 17.2-17.21c1.56 1.2 2.74 3.08 4.84 3.35a5.65 5.65 0 0 0 6.63-6.3c-.43-4.08-5.86-6.36-9-3.61-4.26 4.08-8.33 8.37-12.58 12.47a10.79 10.79 0 0 1-8.08 2.79 10.84 10.84 0 0 1-9.7-7.87A16.28 16.28 0 0 1 .47 18 22.61 22.61 0 0 1 14.25 1.59zm-5 10.06a13.49 13.49 0 0 1 7.19 1.51c1.66-1.45 3.11-3.11 4.7-4.63a19.13 19.13 0 0 0 2.89-3.15 16.87 16.87 0 0 0-14.74 6.27zM28.7 32c-2.63 2.52-5.25 5.07-7.72 7.75a16.34 16.34 0 0 0 14.79-6.22A13.52 13.52 0 0 1 28.7 32z" fill="url(#aec1c90b5-7b65-4bb9-849a-99f87bc705d4)"/></svg>
